<?xml version="1.0" standalone="no"?><!DOCTYPE svg PUBLIC "-//W3C//DTD SVG 1.1//EN" "http://www.w3.org/Graphics/SVG/1.1/DTD/svg11.dtd"><svg t="1563812783178" class="icon" viewBox="0 0 1024 1024" version="1.1" xmlns="http://www.w3.org/2000/svg" p-id="2307" xmlns:xlink="http://www.w3.org/1999/xlink" width="200" height="200"><defs><style type="text/css"></style></defs><path d="M895.488 192.512L270.848 68.096a44.8 44.8 0 0 0-8.192-1.024c-69.12 0-126.976 58.368-126.976 126.976v67.584C73.728 270.848 25.6 324.096 25.6 387.584v442.368a126.976 126.976 0 0 0 126.976 126.976h718.336a126.976 126.976 0 0 0 126.976-126.976V320.512c0.512-62.464-36.864-110.08-102.4-128zM259.072 155.648l526.848 104.96H223.744v-66.56c0-19.456 15.872-36.352 35.328-38.4z m612.352 712.704H152.576a38.912 38.912 0 0 1-38.912-38.912V387.584c0-20.48 17.92-38.4 37.888-38.912H909.824v480.768c0 21.504-17.408 38.912-38.4 38.912z" fill="" p-id="2308"></path><path d="M203.264 569.856c-20.48 21.504-20.48 56.832 0 78.848 21.504 20.48 56.832 20.48 78.336 0 21.504-21.504 21.504-56.832 0-78.848-21.504-21.504-56.832-21.504-78.336 0z" fill="" p-id="2309"></path></svg>