<?xml version="1.0" standalone="no"?><!DOCTYPE svg PUBLIC "-//W3C//DTD SVG 1.1//EN" "http://www.w3.org/Graphics/SVG/1.1/DTD/svg11.dtd"><svg t="1571279902726" class="icon" viewBox="0 0 1024 1024" version="1.1" xmlns="http://www.w3.org/2000/svg" p-id="7924" xmlns:xlink="http://www.w3.org/1999/xlink" width="200" height="200"><defs><style type="text/css"></style></defs><path d="M679.9 175.1v451.4c0 48.1 48.7 72.2 76.7 38l189.8-226c17.4-20.7 17.4-54.8 0-76.1l-189.2-226c-28.1-33.4-77.3-9.4-77.3 38.7z m-0.3 57.7H455.9c-30.9 0-55.9 37.6-55.9 83.9l-0.3 251.8h280V232.8z" fill="#1890FF" opacity=".5" p-id="7925"></path><path d="M343.7 398.9v451.4c0 48.1-48.7 72.2-76.7 38l-189.8-226c-17.4-20.7-17.4-54.8 0-76.1l189.2-226c28-33.4 77.3-9.4 77.3 38.7z m0.2 57.7h279.7v251.8c0 46.3-25 83.9-55.9 83.9H343.9V456.6z" fill="#1890FF" p-id="7926"></path></svg>