<?xml version="1.0" standalone="no"?><!DOCTYPE svg PUBLIC "-//W3C//DTD SVG 1.1//EN" "http://www.w3.org/Graphics/SVG/1.1/DTD/svg11.dtd"><svg t="1571280041551" class="icon" viewBox="0 0 1024 1024" version="1.1" xmlns="http://www.w3.org/2000/svg" p-id="13674" xmlns:xlink="http://www.w3.org/1999/xlink" width="200" height="200"><defs><style type="text/css"></style></defs><path d="M512 512m-512 0a512 512 0 1 0 1024 0 512 512 0 1 0-1024 0Z" fill="#DBEEFF" p-id="13675"></path><path d="M512 256a256 256 0 1 0 0.032 511.968A256 256 0 0 0 512 256z m128.064 284.224h-135.936a21.024 21.024 0 0 1-20.96-20.96V383.36a20.992 20.992 0 0 1 41.984 0v114.912H640a20.96 20.96 0 1 1 0 41.952z" fill="#004F8E" p-id="13676"></path></svg>