<?xml version="1.0" standalone="no"?><!DOCTYPE svg PUBLIC "-//W3C//DTD SVG 1.1//EN" "http://www.w3.org/Graphics/SVG/1.1/DTD/svg11.dtd"><svg t="1571280125698" class="icon" viewBox="0 0 1024 1024" version="1.1" xmlns="http://www.w3.org/2000/svg" p-id="16908" xmlns:xlink="http://www.w3.org/1999/xlink" width="200" height="200"><defs><style type="text/css"></style></defs><path d="M720.384 67.072h-629.76c-38.912 0-70.144 31.232-70.144 70.144v758.272c0 38.912 31.232 70.144 70.144 70.144h422.912c1.024 0 2.048 0 2.56-0.512-10.752-17.408-17.408-37.888-17.408-59.904v-36.864c0-62.464 50.688-113.152 113.152-113.152h10.752l43.52-52.736c-16.896-16.896-29.184-37.376-36.864-59.904-27.136-81.408 16.896-169.984 98.304-197.12 15.872-5.632 32.768-8.192 49.664-8.192 4.608 0 8.704 0 13.312 0.512v-300.544c0.512-38.4-31.232-70.144-70.144-70.144z m-528.896 182.784h179.2c19.456 0 35.328 15.872 35.328 35.328 0 19.456-15.872 35.328-35.328 35.328h-179.2c-19.456 0-35.328-15.872-35.328-35.328 0-19.456 15.872-35.328 35.328-35.328z m288.256 485.376h-288.256c-19.456 0-35.328-15.872-35.328-35.328 0-19.456 15.872-35.328 35.328-35.328h288.256c19.456 0 35.328 15.872 35.328 35.328-0.512 19.456-15.872 35.328-35.328 35.328zM532.48 527.872h-340.992c-19.456 0-35.328-15.872-35.328-35.328 0-19.456 15.872-35.328 35.328-35.328H532.48c19.456 0 35.328 15.872 35.328 35.328-0.512 19.456-15.872 35.328-35.328 35.328z" fill="#4178be" p-id="16909"></path><path d="M943.104 808.96h-35.84L810.496 691.712c53.76-17.92 82.944-76.8 65.024-130.56-14.336-43.008-54.784-70.144-97.792-70.144-10.752 0-22.016 1.536-32.768 5.632-53.76 17.92-82.944 76.8-65.024 130.56 10.24 30.72 34.304 54.784 65.024 65.024L648.704 809.472h-35.84c-33.28 0-60.416 27.136-60.416 60.416v36.352c0 33.28 27.136 60.416 60.416 60.416h330.24c33.28 0 60.416-27.136 60.416-60.416v-36.864c-0.512-33.28-27.136-60.416-60.416-60.416z" fill="#7cc7ff" p-id="16910"></path></svg>