<?xml version="1.0" standalone="no"?><!DOCTYPE svg PUBLIC "-//W3C//DTD SVG 1.1//EN" "http://www.w3.org/Graphics/SVG/1.1/DTD/svg11.dtd"><svg t="1569670215456" class="icon" viewBox="0 0 1024 1024" version="1.1" xmlns="http://www.w3.org/2000/svg" p-id="2053" xmlns:xlink="http://www.w3.org/1999/xlink" width="200" height="200"><defs><style type="text/css"></style></defs><path d="M872.203448 509.569858c81.878958 95.951904 115.270221 190.752385 78.552626 254.336514-36.717595 63.584128-135.484089 82.070862-259.517917 59.170341-42.026934 117.828938-107.594068 193.375071-181.541003 193.055231-73.946934-0.31984-140.153748-76.377716-183.140201-194.526494-123.841924 21.877034-222.800321 2.558717-260.02966-61.409218C29.297954 696.420199 61.857634 601.811622 142.905009 506.627333 61.026051 410.547493 27.762724 315.747012 64.416351 252.162883 101.069979 188.578755 199.836472 170.092021 323.934268 193.05651 365.897234 75.163604 431.400401-0.31856 505.475271 0.001279c73.946934 0.31984 140.08978 76.377716 183.1402 194.526494 46.824529-8.251864 90.130822-10.618677 127.871905-6.972505a130.750461 130.750461 0 0 0-31.152385 54.564649 406.836073 406.836073 0 0 0-79.448177 6.716634c11.130421 40.427736 19.83006 84.501644 25.587175 131.134269 37.996954 28.337796 72.155832 57.827014 101.900922 87.636072 17.911022-21.173387 32.751583-41.962966 43.945972-61.856994 20.725611 5.949018 42.15487 6.652665 62.560641 2.622685-15.608176 32.687615-38.508698 66.910461-67.678076 101.197275z m-133.501083 49.511183c20.213868-16.503728 38.892505-33.263327 55.844009-49.831023a836.060924 836.060924 0 0 0-56.291784-50.278797c1.663166 33.327295 1.791102 66.718557 0.447775 100.10982zM652.08978 755.974348c5.949018-22.964489 11.066453-47.464209 15.224369-73.243287a1116.048581 1116.048581 0 0 1-86.932425 49.703086c24.627655 9.275351 48.615631 17.143407 71.708056 23.540201z m-143.735952-54.052906a1124.236476 1124.236476 0 0 0 168.299639-96.207776 1120.846176 1120.846176 0 0 0-0.767615-193.822846 1146.049543 1146.049543 0 0 0-169.131223-97.679039 1122.509342 1122.509342 0 0 0-168.235672 96.207776 1119.694753 1119.694753 0 0 0 0.767616 193.822846 1144.834152 1144.834152 0 0 0 169.067255 97.679039z m-159.088257-20.533708c4.413788 25.843046 9.723126 50.342766 15.864048 73.435191 23.028457-6.268858 46.952465-13.881042 71.452184-23.028457a1151.870625 1151.870625 0 0 1-87.316232-50.406734zM276.853867 557.162003a1118.927138 1118.927138 0 0 1-0.447776-100.10982c-20.213868 16.503728-38.892505 33.199359-55.78004 49.831022 17.015471 16.759599 35.822044 33.583166 56.227816 50.278798zM362.954709 260.158875c-5.88505 22.964489-11.002485 47.464209-15.224369 73.243287 28.20986-17.911022 57.251303-34.41475 86.932425-49.703086a836.060924 836.060924 0 0 0-71.644088-23.540201z m259.70982 48.35976c14.584689 8.443768 28.977475 17.143407 43.114389 26.226854a824.802568 824.802568 0 0 0-15.80008-73.371223c-23.028457 6.20489-46.952465 13.817074-71.516152 22.964489 14.712625 7.676152 29.489219 15.672144 44.201843 24.17988z m-117.061323-243.90974C455.708216 64.480959 410.930661 118.725769 379.714308 205.658194c40.747575 10.874549 83.414189 25.71511 126.848417 44.393747a915.637037 915.637037 0 0 1 126.400642-43.306292C600.979399 119.493384 555.6901 64.800799 505.731142 64.608895zM307.174669 247.173384c-91.666052-16.695631-161.519039-5.437275-186.338598 37.549179-24.819559 42.986453 0.31984 109.193267 60.641603 180.197676 29.553186-29.617154 63.456193-58.850501 101.069339-86.80449a907.065334 907.065334 0 0 1 24.627656-130.942365z m-125.377155 301.288979c-59.682084 70.556633-84.30974 136.507576-59.106373 179.749901 25.139399 43.178357 95.184289 55.012425 186.658438 39.020441a915.061326 915.061326 0 0 1-25.651143-131.134269 930.09379 930.09379 0 0 1-101.900922-87.636073z m200.475512 260.989179c31.983968 87.124329 77.209299 141.816914 127.232224 142.008818 50.022926 0.255872 94.800481-54.052906 126.016835-141.049299a930.029823 930.029823 0 0 1-126.78445-44.393747c-43.306293 18.358798-85.84497 32.815551-126.464609 43.37026z m350.416353-171.434068a906.425654 906.425654 0 0 1-24.563687 130.942365c91.602084 16.695631 161.519039 5.437275 186.338598-37.549179 24.819559-43.050421-0.383808-109.193267-60.705572-180.197676-29.489219 29.553186-63.392225 58.850501-101.069339 86.80449z m99.022365-410.03447a95.440161 95.440161 0 0 1 130.878398-34.542686c46.056914 26.610661 62.048898 85.397195 35.694108 131.134269a95.440161 95.440161 0 0 1-130.878397 34.542685 96.39968 96.39968 0 0 1-35.694109-131.134268z" p-id="2054" fill="#cdcdcd"></path></svg>