<?xml version="1.0" standalone="no"?><!DOCTYPE svg PUBLIC "-//W3C//DTD SVG 1.1//EN" "http://www.w3.org/Graphics/SVG/1.1/DTD/svg11.dtd"><svg t="1571126781542" class="icon" viewBox="0 0 1212 1024" version="1.1" xmlns="http://www.w3.org/2000/svg" p-id="5401" xmlns:xlink="http://www.w3.org/1999/xlink" width="236.71875" height="200"><defs><style type="text/css"></style></defs><path d="M961.624882 1024H254.714866c-64.944282 0-117.758314-52.836898-117.758314-117.758314V361.912456a34.298538 34.298538 0 0 1 68.597076 0v544.289215a49.235551 49.235551 0 0 0 49.161238 49.161238h706.910016a45.159742 45.159742 0 0 0 45.096861-45.096861V361.912456a34.298538 34.298538 0 0 1 68.597076 0v548.376458c0 62.692011-51.001926 113.711086-113.693937 113.711086z" p-id="5402"></path><path d="M798.203782 1024h-384.143625v-330.289204c0-64.944282 52.836898-117.758314 117.758313-117.758314h148.569834c64.944282 0 117.758314 52.836898 117.758313 117.758314z m-315.546549-68.597076h246.949473v-261.692128a49.235551 49.235551 0 0 0-49.161238-49.161238H531.852769a49.235551 49.235551 0 0 0-49.161238 49.161238zM1177.762836 507.606929a34.149911 34.149911 0 0 1-21.848169-7.877231l-498.946548-412.874367a79.806981 79.806981 0 0 0-101.649434 0L56.354988 499.729698a34.298538 34.298538 0 1 1-43.730636-52.848331L511.582333 34.007c54.791914-45.336951 134.33594-45.336951 189.116422 0l498.940831 412.874367a34.298538 34.298538 0 0 1-21.882467 60.725562z" p-id="5403"></path></svg>