<?xml version="1.0" standalone="no"?><!DOCTYPE svg PUBLIC "-//W3C//DTD SVG 1.1//EN" "http://www.w3.org/Graphics/SVG/1.1/DTD/svg11.dtd"><svg t="1570517584343" class="icon" viewBox="0 0 1024 1024" version="1.1" xmlns="http://www.w3.org/2000/svg" p-id="2672" xmlns:xlink="http://www.w3.org/1999/xlink" width="200" height="200"><defs><style type="text/css"></style></defs><path d="M851.2 1024c-12.8 0-19.2-6.4-19.2-19.2 0-19.2 0-32-6.4-51.2 0-12.8 6.4-19.2 12.8-19.2 12.8 0 19.2 6.4 19.2 12.8 0 19.2 6.4 38.4 6.4 57.6 6.4 6.4 0 19.2-12.8 19.2z m0 0M134.4 1024c-12.8 0-19.2-6.4-19.2-19.2 0-166.4 108.8-313.6 268.8-364.8 12.8 0 19.2 0 25.6 12.8 0 12.8 0 19.2-12.8 25.6-140.8 44.8-243.2 172.8-243.2 326.4 0 6.4-6.4 19.2-19.2 19.2zM729.6 601.6c-96 0-179.2 76.8-179.2 179.2S627.2 960 729.6 960s179.2-76.8 179.2-179.2-83.2-179.2-179.2-179.2z m0 326.4c-83.2 0-147.2-64-147.2-147.2s64-147.2 147.2-147.2 147.2 64 147.2 147.2-64 147.2-147.2 147.2z" fill="#FFFFFF" p-id="2673"></path><path d="M774.4 800l-32-25.6v-57.6c0-6.4-6.4-12.8-12.8-12.8s-12.8 6.4-12.8 12.8v70.4l44.8 38.4c6.4 6.4 19.2 6.4 19.2 0 6.4-12.8 0-19.2-6.4-25.6zM787.2 108.8c-6.4-6.4-6.4-6.4-12.8-6.4C659.2 96 544 6.4 537.6 6.4 531.2 0 518.4 0 512 6.4 441.6 57.6 275.2 102.4 275.2 102.4c-6.4 0-12.8 6.4-12.8 12.8v19.2l32 89.6c0 6.4 12.8 19.2 19.2 19.2H320v44.8c0 12.8 0 25.6-6.4 38.4h12.8c-6.4 32-19.2 64-19.2 96 0 121.6 96 217.6 217.6 217.6s217.6-96 217.6-217.6c0-32-6.4-64-25.6-96h12.8v-19.2-64h6.4c6.4 0 12.8-12.8 19.2-19.2l32-96c6.4-6.4 6.4-12.8 0-19.2z m-96 179.2H358.4v-44.8h326.4v44.8z m25.6 134.4c0 102.4-83.2 185.6-185.6 185.6s-192-83.2-192-185.6c0-32 12.8-64 25.6-96h320c19.2 25.6 32 57.6 32 96z m6.4-217.6H326.4l-19.2-57.6c44.8-12.8 153.6-51.2 217.6-96 32 19.2 121.6 83.2 217.6 96l-19.2 57.6z" fill="#FFFFFF" p-id="2674"></path></svg>