<?xml version="1.0" standalone="no"?><!DOCTYPE svg PUBLIC "-//W3C//DTD SVG 1.1//EN" "http://www.w3.org/Graphics/SVG/1.1/DTD/svg11.dtd"><svg t="1570023778501" class="icon" viewBox="0 0 1024 1024" version="1.1" xmlns="http://www.w3.org/2000/svg" p-id="2260" xmlns:xlink="http://www.w3.org/1999/xlink" width="200" height="200"><defs><style type="text/css"></style></defs><path d="M742.58 702.76h-19.12L700 653a98.09 98.09 0 0 0 29.85-70.32c0-53.84-43.69-97.65-97.38-97.65s-97.38 43.8-97.38 97.65A98.1 98.1 0 0 0 564.94 653l-23.46 49.74H522a72.1 72.1 0 0 0-72 72v2.92a72.1 72.1 0 0 0 72 72h220.58a72.1 72.1 0 0 0 72-72v-2.92a72.1 72.1 0 0 0-72-71.98z m-110.1-167.7a47.69 47.69 0 0 1 24.38 88.49 25.39 25.39 0 0 0-10 34.68c0.37 0.64 0.77 1.25 1.19 1.84l20.14 42.69h-71.42L616.92 660c0.4-0.58 0.79-1.18 1.15-1.8a25 25 0 0 0-9.14-34.15 47.71 47.71 0 0 1 23.55-89zM764.6 777.7a22 22 0 0 1-22 22H522a22 22 0 0 1-22-22v-2.92a22 22 0 0 1 22-22h220.58a22 22 0 0 1 22 22zM479.67 514a32 32 0 0 0-32-32h-128a32 32 0 0 0 0 64h128a32 32 0 0 0 32-32z" p-id="2261"></path><path d="M863 65.16H161a64.19 64.19 0 0 0-64 64v767.68a64.19 64.19 0 0 0 64 64h702a64.19 64.19 0 0 0 64-64V129.16a64.19 64.19 0 0 0-64-64z m0 831.58l-0.11 0.11H161.12l-0.11-0.11V129.27l0.11-0.11h701.76l0.11 0.11z" p-id="2262"></path><path d="M319 289.58h383.25a32 32 0 0 0 0-64H319a32 32 0 1 0 0 64zM319 417.41h383.25a32 32 0 0 0 0-64H319a32 32 0 0 0 0 64z" p-id="2263"></path></svg>