<?xml version="1.0" standalone="no"?><!DOCTYPE svg PUBLIC "-//W3C//DTD SVG 1.1//EN" "http://www.w3.org/Graphics/SVG/1.1/DTD/svg11.dtd"><svg t="1570004176120" class="icon" viewBox="0 0 1024 1024" version="1.1" xmlns="http://www.w3.org/2000/svg" p-id="885" xmlns:xlink="http://www.w3.org/1999/xlink" width="200" height="200"><defs><style type="text/css"></style></defs><path d="M832 64h-64V32a32 32 0 0 0-64 0v32H320V32a32 32 0 0 0-64 0v32h-64A128 128 0 0 0 64 192v640a128 128 0 0 0 128 128h640a128 128 0 0 0 128-128V192A128 128 0 0 0 832 64z m64 768a64 64 0 0 1-64 64H192a64 64 0 0 1-64-64V192a64 64 0 0 1 64-64h64v32a32 32 0 0 0 64 0v-32h384v32a32 32 0 0 0 64 0v-32h64a64 64 0 0 1 64 64v640z" p-id="886"></path><path d="M388.224 329.536l-103.36 103.488-39.808-39.872a31.104 31.104 0 0 0-43.904 43.904l65.792 65.856a31.168 31.168 0 0 0 34.048 6.528 33.856 33.856 0 0 0 13.632-8.064l122.688-122.752a34.816 34.816 0 0 0 0-49.088 34.816 34.816 0 0 0-49.088 0zM544 416h-64a32 32 0 0 0 0 64h64a32 32 0 0 0 0-64z m224 0h-64a32 32 0 0 0 0 64h64a32 32 0 0 0 0-64zM544 608h-64a32 32 0 0 0 0 64h64a32 32 0 0 0 0-64z m224 0h-64a32 32 0 0 0 0 64h64a32 32 0 0 0 0-64z m-448 0h-64a32 32 0 0 0 0 64h64a32 32 0 0 0 0-64z" p-id="887"></path></svg>