<?xml version="1.0" standalone="no"?><!DOCTYPE svg PUBLIC "-//W3C//DTD SVG 1.1//EN" "http://www.w3.org/Graphics/SVG/1.1/DTD/svg11.dtd"><svg t="1571287123520" class="icon" viewBox="0 0 1024 1024" version="1.1" xmlns="http://www.w3.org/2000/svg" p-id="13083" xmlns:xlink="http://www.w3.org/1999/xlink" width="200" height="200"><defs><style type="text/css"></style></defs><path d="M450.56 389.12c-95.573333 0-170.666667 75.093333-170.666667 177.493333s75.093333 177.493333 170.666667 177.493334 170.666667-75.093333 170.666667-177.493334S546.133333 389.12 450.56 389.12z" fill="#85BCFE" p-id="13084"></path><path d="M512 27.306667C245.76 27.306667 27.306667 245.76 27.306667 512s218.453333 484.693333 484.693333 484.693333 484.693333-218.453333 484.693333-484.693333S778.24 27.306667 512 27.306667z m293.546667 457.386666c0 13.653333-13.653333 27.306667-27.306667 27.306667s-27.306667-13.653333-27.306667-27.306667V314.026667L634.88 430.08c27.306667 34.133333 40.96 88.746667 40.96 136.533333 0 122.88-102.4 232.106667-225.28 232.106667-122.88 0-225.28-102.4-225.28-232.106667 0-122.88 102.4-232.106667 225.28-232.106666 54.613333 0 102.4 27.306667 143.36 54.613333l102.4-102.4H546.133333c-20.48 0-34.133333-13.653333-34.133333-34.133333s13.653333-27.306667 34.133333-27.306667h225.28c13.653333 0 27.306667 13.653333 34.133334 27.306667v232.106666z" fill="#85BCFE" p-id="13085"></path></svg>