<?xml version="1.0" standalone="no"?><!DOCTYPE svg PUBLIC "-//W3C//DTD SVG 1.1//EN" "http://www.w3.org/Graphics/SVG/1.1/DTD/svg11.dtd"><svg t="1565151637067" class="icon" viewBox="0 0 1024 1024" version="1.1" xmlns="http://www.w3.org/2000/svg" p-id="2893" xmlns:xlink="http://www.w3.org/1999/xlink" width="200" height="200"><defs><style type="text/css"></style></defs><path d="M896 988.16H128a40.96 40.96 0 0 1-40.96-40.96V435.2a40.96 40.96 0 0 1 81.92 0v471.04h686.08V435.2a40.96 40.96 0 0 1 81.92 0v512a40.96 40.96 0 0 1-40.96 40.96z" p-id="2894"></path><path d="M399.34976 729.43104a40.82176 40.82176 0 0 1-27.93984-11.01312l-271.36-253.27104a40.96 40.96 0 1 1 55.89504-59.88864l271.36 253.27104a40.96 40.96 0 0 1-27.9552 70.90176zM624.66048 729.4208a40.96 40.96 0 0 1-27.96032-70.90688l271.34976-253.2608a40.96512 40.96512 0 0 1 55.90016 59.88864l-271.34976 253.2608a40.82688 40.82688 0 0 1-27.93984 11.01824z" p-id="2895"></path><path d="M895.98976 476.16a40.832 40.832 0 0 1-27.93984-11.01312l-309.14048-288.53248c-25.4208-23.73632-68.39808-23.73632-93.824 0L155.94496 465.14688a40.96 40.96 0 0 1-55.89504-59.88864L409.1904 116.72576c56.68864-52.90496 148.92544-52.90496 205.6192 0l309.14048 288.53248A40.97024 40.97024 0 0 1 895.98976 476.16zM895.9488 988.16H128.0512a41.0112 41.0112 0 0 1-39.22944-29.10208 41.0112 41.0112 0 0 1 13.81888-44.02688l383.72864-306.99008 0.75264-0.5888a41.0624 41.0624 0 0 1 49.74592 0c0.25088 0.19456 0.50688 0.38912 0.75264 0.5888l383.91808 307.13856a41.0112 41.0112 0 0 1 13.27104 44.98944 40.97024 40.97024 0 0 1-38.8608 27.99104zM244.77184 906.24h534.46144L512 692.4544 244.77184 906.24z" p-id="2896"></path></svg>