<?xml version="1.0" standalone="no"?><!DOCTYPE svg PUBLIC "-//W3C//DTD SVG 1.1//EN" "http://www.w3.org/Graphics/SVG/1.1/DTD/svg11.dtd"><svg t="1563860713620" class="icon" viewBox="0 0 1024 1024" version="1.1" xmlns="http://www.w3.org/2000/svg" p-id="937" xmlns:xlink="http://www.w3.org/1999/xlink" width="200" height="200"><defs><style type="text/css"></style></defs><path d="M710.066543 556.760436c31.150464-51.480488 49.907667-115.352191 49.907667-184.720072 0-3.093455-0.048095-6.173606-0.12075-9.245572l73.591065 0 0-68.933999L751.888044 293.860794C724.001927 161.759127 627.140878 64.296375 511.999488 64.296375c-115.14446 0-211.945133 97.462752-239.811808 229.564419L167.601694 293.860794l0 68.933999 96.625688 0c-0.072655 3.071965-0.12075 6.152117-0.12075 9.245572 0 69.367881 18.671245 133.239584 49.821709 184.720072-128.177288 61.687968-215.167524 181.314509-215.167524 319.003428l0 27.919886c0 30.889521 24.692379 56.018851 55.05592 56.018851l716.272383 0c30.451546 0 55.149041-25.130354 55.149041-56.018851l0-27.919886C925.238161 738.074945 838.154803 618.449427 710.066543 556.760436zM511.999488 148.233066c69.413929 0 130.440841 61.526285 154.428162 145.628752L357.494579 293.861818C381.504412 209.758328 442.583512 148.233066 511.999488 148.233066zM677.100734 362.794793c0.098237 3.069919 0.159636 6.15007 0.159636 9.245572 0 121.373325-75.650981 223.898373-165.260881 223.898373-89.61297 0-165.348885-102.524025-165.348885-223.898373 0-3.095501 0.062422-6.175653 0.159636-9.245572L677.100734 362.794793zM181.390745 875.764887c0-111.074771 76.870762-207.056799 187.94451-252.167207 40.314171 35.337833 89.523943 56.278771 142.665257 56.278771 53.137221 0 102.345969-20.940938 142.66014-56.278771C765.7344 668.708088 842.604138 764.690116 842.604138 875.764887L181.390745 875.764887z" p-id="938" fill="#e6e6e6"></path></svg>