<?xml version="1.0" standalone="no"?><!DOCTYPE svg PUBLIC "-//W3C//DTD SVG 1.1//EN" "http://www.w3.org/Graphics/SVG/1.1/DTD/svg11.dtd"><svg t="1566116352159" class="icon" viewBox="0 0 1024 1024" version="1.1" xmlns="http://www.w3.org/2000/svg" p-id="1431" width="200" height="200" xmlns:xlink="http://www.w3.org/1999/xlink"><defs><style type="text/css"></style></defs><path d="M869.745289 955.911252c-8.815783 0-17.631566-3.582595-24.607444-10.605545 0 0-137.357368-109.170398-225.410819-197.176778C538.746666 667.098427 482.366587 594.881662 480.623897 593.139995c-1.74269-1.74269-8.815783-1.74269-12.30321 1.741667l-37.002752 38.747489c-1.74269 1.792832-3.487428 3.535523-3.487428 7.074116 0 1.741667 1.744737 5.27719 3.487428 7.021927l15.885805 15.836687c6.974855 7.073092 10.55745 15.885805 10.55745 26.444279 0 10.561543-3.582595 19.374256-10.55745 26.397207l-74.008574 73.960479c-14.045901 14.092973-38.745443 14.092973-52.79032 0L75.617723 547.369555c-14.045901-14.092973-14.045901-38.748513 0-52.841485l74.007551-73.909313c14.045901-14.144138 38.747489-14.144138 52.79339 0l15.885805 15.83771c3.487428 3.487428 10.558473 3.487428 14.045901 0L438.387957 230.416833c3.487428-3.535523 3.487428-10.558473 0-14.092973l-15.885805-15.838733c-14.045901-14.092973-14.045901-38.698371 0-52.841485l74.008574-73.910337c14.045901-14.09502 38.650275-14.09502 52.79339 0l242.945171 242.945171c14.143115 14.142092 14.143115 38.747489 0 52.841485l-73.91136 73.959455c-14.045901 14.093996-38.747489 14.093996-52.79339 0l-15.885805-15.83771c-3.487428-3.53757-10.558473-3.53757-14.046924 0L586.306868 476.946646c-1.840928 1.74269-3.583618 3.535523-3.583618 7.02295 0 1.74269 0 5.28026 1.74269 7.070023 10.655687 8.815783 95.124498 70.425979 158.476361 133.824915 84.567048 84.515882 202.552206 218.340797 202.552206 220.083487 17.628496 17.581424 7.070023 38.747489 1.74269 49.305963 0 0-8.815783 17.581424-24.604374 33.467229-15.885805 15.839757-31.772634 22.861684-33.518395 22.861684C887.373785 952.328657 878.558002 955.911252 869.745289 955.911252L869.745289 955.911252zM433.063695 524.459776" p-id="1432" fill="#707070"></path></svg>