<?xml version="1.0" standalone="no"?><!DOCTYPE svg PUBLIC "-//W3C//DTD SVG 1.1//EN" "http://www.w3.org/Graphics/SVG/1.1/DTD/svg11.dtd"><svg class="icon" width="200px" height="200.00px" viewBox="0 0 1024 1024" version="1.1" xmlns="http://www.w3.org/2000/svg"><path d="M317.200648 1024h-4.502661a35.547327 35.547327 0 0 1-23.69821801-14.218931L238.0486 940.819255l-113.751447 75.12335099A35.547327 35.547327 0 0 1 69.080305 986.31983301V98.584587A98.821569 98.821569 0 0 1 167.664892 0h688.433233a98.821569 98.821569 0 0 1 98.584587 98.584587v887.73524599a35.547327 35.547327 0 0 1-59.482527 26.30502201l-80.573941-73.464475-30.570701 62.800277a35.547327 35.547327 0 0 1-52.847026 13.271002l-108.53783899-79.152048-69.43577901 75.360333a35.547327 35.547327 0 0 1-25.83105699 11.375145 33.414487 33.414487 0 0 1-26.06804-11.138162l-68.01388601-71.094654-94.792872 75.597315a35.547327 35.547327 0 0 1-21.328396 7.820412z m-71.09465401-165.88752601a35.547327 35.547327 0 0 1 28.674844 14.45591301l48.58134701 66.118028 90.29021-72.99051101a35.547327 35.547327 0 0 1 47.396436 3.080768l64.459153 67.53992101 65.1701-71.094654a35.547327 35.547327 0 0 1 47.396436-4.739643l100.00648 72.753529 32.703541-67.30293899a35.547327 35.547327 0 0 1 56.63874099-11.37514501l56.16477602 51.188151V98.584587A27.489933 27.489933 0 0 0 856.098125 71.09465399H167.664892A27.489933 27.489933 0 0 0 140.17496 98.584587v821.617218l86.97246-57.34968699a35.310345 35.310345 0 0 1 19.43253799-5.68757301z"  /><path d="M365.071048 719.951863a54.031937 54.031937 0 0 1-51.188151-71.094654l41.471882-126.548484-108.537838-77.967137a53.794955 53.794955 0 0 1 31.51862902-97.399676h134.36889698l41.471881-126.785467a54.031937 54.031937 0 0 1 102.613284 0l41.47188199 126.548484H732.63040999a53.794955 53.794955 0 0 1 51.42513301 37.206203 53.557973 53.557973 0 0 1-19.66952099 60.193473l-108.53783901 78.20412 41.471882 126.785466a53.557973 53.557973 0 0 1-19.43253899 60.193474 54.97986601 54.97986601 0 0 1-63.27424201 0l-108.774821-78.678084-108.77482 78.441102a53.794955 53.794955 0 0 1-31.992595 10.90118z m264.472113-47.396436z m-248.120342 0z m-26.305022-19.19555699z m-23.698218-234.13839301l86.261513 62.32631299a35.547327 35.547327 0 0 1 13.03402 39.81300601l-33.177505 101.191391 86.97246-62.800278a35.547327 35.547327 0 0 1 41.708864 0L614.13932 621.13029401l-32.940523-101.19139101a35.547327 35.547327 0 0 1 13.034019-39.813006l86.26151401-62.08933099h-107.826892a35.547327 35.547327 0 0 1-33.888452-23.69821801l-33.17750501-101.428373L471.950012 393.390419a35.547327 35.547327 0 0 1-33.888452 23.698218z m400.973848 0z m-9.953251-31.281648z m-434.388336 0z m200.960889-144.55913z m32.70354 0z"  /></svg>