<?xml version="1.0" standalone="no"?><!DOCTYPE svg PUBLIC "-//W3C//DTD SVG 1.1//EN" "http://www.w3.org/Graphics/SVG/1.1/DTD/svg11.dtd"><svg class="icon" width="200px" height="200.00px" viewBox="0 0 1024 1024" version="1.1" xmlns="http://www.w3.org/2000/svg"><path d="M85.333333 981.333333c-36.266667 0-64-25.6-64-61.866666V104.533333C21.333333 70.4 49.066667 42.666667 85.333333 42.666667c34.133333 0 64 25.6 64 61.866666v817.066667C149.333333 955.733333 121.6 981.333333 85.333333 981.333333zM938.666667 217.6c-4.266667-19.2-19.2-32-40.533334-32H595.2V104.533333c0-21.333333-19.2-40.533333-40.533333-40.533333H232.533333C211.2 64 192 83.2 192 104.533333v403.2c0 21.333333 19.2 40.533333 40.533333 40.533334h262.4v81.066666c0 21.333333 19.2 40.533333 40.533334 40.533334h362.666666c17.066667 0 32-10.666667 38.4-25.6l-119.466666-206.933334L938.666667 217.6z" /></svg>