<?xml version="1.0" standalone="no"?><!DOCTYPE svg PUBLIC "-//W3C//DTD SVG 1.1//EN" "http://www.w3.org/Graphics/SVG/1.1/DTD/svg11.dtd"><svg t="1571280463809" class="icon" viewBox="0 0 1024 1024" version="1.1" xmlns="http://www.w3.org/2000/svg" p-id="35474" xmlns:xlink="http://www.w3.org/1999/xlink" width="200" height="200"><defs><style type="text/css"></style></defs><path d="M162.909091 733.323636h162.909091a186.181818 186.181818 0 1 1 372.363636 0h169.192727a23.272727 23.272727 0 0 0 20.247273-34.909091l-19.316363-25.832727A382.138182 382.138182 0 0 1 791.272727 442.181818v-58.181818a279.272727 279.272727 0 1 0-558.545454 0v63.534545a382.138182 382.138182 0 0 1-71.214546 222.72l-18.618182 26.298182A23.272727 23.272727 0 0 0 162.909091 733.323636z" fill="#73B4FF" p-id="35475"></path><path d="M512 919.505455a186.181818 186.181818 0 0 0 186.181818-186.181819H325.818182a186.181818 186.181818 0 0 0 186.181818 186.181819z" fill="#87D3FF" p-id="35476"></path><path d="M512 547.141818a186.181818 186.181818 0 0 0-186.181818 186.181818h372.363636a186.181818 186.181818 0 0 0-186.181818-186.181818z" fill="#73B4FF" p-id="35477"></path><path d="M512 547.141818a186.181818 186.181818 0 0 0-186.181818 186.181818h372.363636a186.181818 186.181818 0 0 0-186.181818-186.181818z" fill="#1474E4" p-id="35478"></path></svg>