<?xml version="1.0" standalone="no"?><!DOCTYPE svg PUBLIC "-//W3C//DTD SVG 1.1//EN" "http://www.w3.org/Graphics/SVG/1.1/DTD/svg11.dtd"><svg class="icon" width="200px" height="200.00px" viewBox="0 0 1024 1024" version="1.1" xmlns="http://www.w3.org/2000/svg"><path d="M1023.744 515.584h-1.152c-8.512-73.344-116.032-129.472-252.288-129.472-23.552 0-46.08 1.792-67.52 4.928V193.664c0-58.176-47.36-105.472-105.472-105.472H105.408C47.296 88.192 0 135.488 0 193.664v636.672c0 58.176 47.296 105.408 105.408 105.408h344c13.504 0 24.448-10.944 24.448-24.448s-10.944-24.448-24.448-24.448h-344c-31.168 0-56.512-25.344-56.512-56.576V193.664c0-31.232 25.344-56.64 56.512-56.64h491.904c31.168 0 56.576 25.408 56.576 56.64v207.552c-77.056 21.44-129.984 63.808-135.872 114.368h-0.96v278.848h0.128c0.064 77.888 111.232 138.752 253.12 138.752 141.952 0 253.12-60.864 253.12-138.752h0.32V515.584z m-457.408 92.032c45.696 34.112 119.296 56 204.032 56 84.864 0 158.528-21.888 204.096-56v58.048c-1.728 42.176-84.992 88.512-204.096 88.512-118.848 0-201.984-46.208-204.032-88.256v-58.304zM770.304 434.88c119.104 0 202.368 46.4 204.096 88.512v2.752c-1.728 42.176-84.992 88.512-204.096 88.512-118.656 0-201.728-46.016-204.032-88.064v-3.52c2.304-42.048 85.376-88.192 204.032-88.192z m0 449.472c-120.32 0-204.16-47.36-204.224-89.92h0.192v-47.296c45.696 34.048 119.296 56 204.032 56 84.8 0 158.528-21.952 204.096-56v47.296h0.192c0.064 42.56-83.84 89.92-204.288 89.92z"  /><path d="M142.656 326.144h424.896c13.44 0 24.384-10.944 24.384-24.448s-10.944-24.448-24.384-24.448H142.656c-13.504 0-24.448 10.944-24.448 24.448s11.008 24.448 24.448 24.448zM449.408 487.168H142.656c-13.504 0-24.448 10.944-24.448 24.448s10.944 24.448 24.448 24.448h306.752c13.504 0 24.448-10.944 24.448-24.448s-10.944-24.448-24.448-24.448zM449.408 697.088H142.656c-13.504 0-24.448 10.944-24.448 24.448s10.944 24.448 24.448 24.448h306.752c13.504 0 24.448-10.944 24.448-24.448s-10.944-24.448-24.448-24.448z"  /></svg>