<?xml version="1.0" standalone="no"?><!DOCTYPE svg PUBLIC "-//W3C//DTD SVG 1.1//EN" "http://www.w3.org/Graphics/SVG/1.1/DTD/svg11.dtd"><svg class="icon" width="200px" height="200.00px" viewBox="0 0 1024 1024" version="1.1" xmlns="http://www.w3.org/2000/svg"><path d="M876.544 724.992c-20.48 12.288-49.152 24.576-86.016 32.768-36.864 8.192-77.824 12.288-118.784 12.288-45.056 0-81.92-4.096-118.784-12.288-36.864-8.192-65.536-16.384-86.016-32.768-20.48-12.288-32.768-28.672-32.768-40.96v-57.344c24.576 20.48 57.344 32.768 102.4 40.96 40.96 8.192 90.112 12.288 139.264 12.288 49.152 0 94.208-4.096 139.264-12.288 40.96-8.192 77.824-24.576 102.4-40.96v57.344c-8.192 12.288-20.48 24.576-40.96 40.96z m0-131.072c-20.48 12.288-49.152 24.576-86.016 32.768-36.864 8.192-77.824 12.288-118.784 12.288-45.056 0-81.92-4.096-118.784-12.288-36.864-8.192-65.536-16.384-86.016-32.768-20.48-12.288-32.768-28.672-32.768-40.96v-57.344c24.576 20.48 57.344 32.768 102.4 40.96 40.96 8.192 90.112 16.384 139.264 16.384 49.152 0 94.208-4.096 139.264-16.384 40.96-8.192 77.824-24.576 102.4-40.96v57.344c-8.192 16.384-20.48 28.672-40.96 40.96z m0-126.976c-20.48 12.288-49.152 24.576-86.016 32.768-36.864 8.192-77.824 12.288-118.784 12.288-45.056 0-81.92-4.096-118.784-12.288-36.864-8.192-65.536-16.384-86.016-32.768-20.48-12.288-32.768-28.672-32.768-40.96v-40.96c0-16.384 12.288-28.672 32.768-40.96 20.48-12.288 49.152-24.576 86.016-32.768 36.864-8.192 77.824-12.288 118.784-12.288 45.056 0 81.92 4.096 118.784 12.288 36.864 8.192 65.536 16.384 86.016 32.768 20.48 12.288 32.768 28.672 32.768 40.96v40.96c0 16.384-12.288 28.672-32.768 40.96zM389.12 372.736c-49.152 0-94.208-4.096-135.168-12.288-40.96-8.192-77.824-20.48-102.4-36.864-24.576-16.384-36.864-28.672-36.864-49.152V229.376c0-16.384 12.288-32.768 36.864-49.152 24.576-16.384 61.44-28.672 102.4-36.864 40.96-8.192 90.112-12.288 139.264-12.288s98.304 4.096 139.264 12.288c40.96 8.192 77.824 20.48 102.4 36.864 24.576 16.384 36.864 32.768 36.864 49.152V245.76l-90.112 8.192c-73.728 0-196.608 45.056-192.512 118.784z m0 49.152v98.304c-49.152 0-94.208-4.096-135.168-12.288-40.96-8.192-77.824-20.48-102.4-36.864-24.576-16.384-36.864-32.768-36.864-49.152V356.352c28.672 20.48 69.632 36.864 118.784 49.152 49.152 8.192 98.304 16.384 155.648 16.384z m0 143.36v98.304c-49.152 0-94.208-4.096-135.168-12.288-40.96-8.192-77.824-20.48-102.4-36.864-24.576-16.384-36.864-32.768-36.864-49.152v-65.536c28.672 20.48 69.632 36.864 118.784 49.152 49.152 12.288 98.304 16.384 155.648 16.384z m0 143.36V802.816c-49.152 0-94.208-4.096-135.168-12.288-40.96-8.192-77.824-20.48-102.4-36.864-24.576-16.384-36.864-32.768-36.864-49.152v-65.536c28.672 20.48 69.632 36.864 118.784 49.152 49.152 16.384 98.304 20.48 155.648 20.48z m282.624 98.304c49.152 0 94.208-4.096 139.264-12.288 40.96-8.192 77.824-24.576 102.4-40.96v57.344c0 16.384-12.288 28.672-32.768 40.96-20.48 12.288-49.152 24.576-86.016 32.768-36.864 8.192-77.824 12.288-118.784 12.288-45.056 0-81.92-4.096-118.784-12.288-36.864-8.192-65.536-16.384-86.016-32.768-20.48-12.288-32.768-28.672-32.768-40.96v-57.344c24.576 20.48 57.344 32.768 102.4 40.96 36.864 8.192 81.92 12.288 131.072 12.288z m0 0" /></svg>