<?xml version="1.0" standalone="no"?><!DOCTYPE svg PUBLIC "-//W3C//DTD SVG 1.1//EN" "http://www.w3.org/Graphics/SVG/1.1/DTD/svg11.dtd"><svg t="1573645852988" class="icon" viewBox="0 0 1147 1024" version="1.1" xmlns="http://www.w3.org/2000/svg" p-id="2289" xmlns:xlink="http://www.w3.org/1999/xlink" width="224.0234375" height="200"><defs><style type="text/css"></style></defs><path d="M994.816 278.016h-188.928c25.088-26.624 40.448-62.464 40.448-101.376 0-81.92-66.56-148.48-148.48-148.48-51.712 0-97.28 26.624-123.904 66.56-26.624-39.936-72.192-66.56-123.904-66.56-81.92 0-148.48 66.56-148.48 148.48 0 39.424 15.36 74.752 40.448 101.376H153.088c-40.448 0-74.24 33.28-74.24 74.24v70.144c0 40.448 33.28 74.24 74.24 74.24v425.472c0 40.448 33.28 74.24 74.24 74.24h693.248c40.96 0 74.752-33.792 74.752-74.752V496.64c40.96 0 73.728-33.792 73.728-74.24V352.256c0-40.448-33.28-74.24-74.24-74.24z m-296.96-200.192c54.272 0 98.816 44.544 98.816 98.816 0 54.272-44.544 98.816-98.816 98.816H599.04V176.64c0-54.272 44.032-98.816 98.816-98.816z m-247.808 0c54.272 0 98.816 44.544 98.816 98.816v98.816H450.048c-54.272 0-98.816-44.544-98.816-98.816 0-54.272 44.544-98.816 98.816-98.816zM128 422.4V352.256c0-13.824 11.264-25.088 25.088-25.088h396.288v119.808H153.088c-14.336 0.512-25.088-11.264-25.088-24.576z m99.328 523.776c-13.824 0-25.088-11.264-25.088-25.088V497.152 496.64h346.624v449.536H227.328z m718.336-24.576c0 13.824-11.264 25.088-25.088 25.088h-322.048V496.64h347.136v424.96z m74.24-499.2c0 13.824-11.264 25.088-25.088 25.088H599.04V327.68h396.288c13.824 0 25.088 11.264 25.088 25.088v69.632z" fill="#e6e6e6" p-id="2290"></path></svg>