<?xml version="1.0" standalone="no"?><!DOCTYPE svg PUBLIC "-//W3C//DTD SVG 1.1//EN" "http://www.w3.org/Graphics/SVG/1.1/DTD/svg11.dtd"><svg class="icon" width="16px" height="16.00px" viewBox="0 0 1024 1024" version="1.1" xmlns="http://www.w3.org/2000/svg"><path d="M486.912 499.712c15.872 0 29.184-15.36 29.184-31.232s-13.312-31.232-29.184-31.232h-34.816l29.696-59.392c6.656-14.848 0-32.768-14.848-39.424-7.168-3.072-17.92-3.584-25.088-0.512-7.168 2.56-12.8 9.728-15.872 16.896L384 437.76h-40.448l-40.96-82.944c-3.072-7.168-8.704-13.824-15.872-16.896-7.168-2.56-17.408-3.584-24.064-0.512-7.168 3.072-14.848 10.752-17.408 17.92s-2.56 15.36 0.512 22.528l29.184 59.392h-46.592c-15.872 0-29.184 15.36-29.184 31.232s12.8 31.232 29.184 31.232h97.28v60.928h-97.28c-15.872 0-29.184 15.36-29.184 31.232s12.8 31.232 29.184 31.232h97.28v78.336c0 15.872 13.824 29.184 30.208 29.184 15.872 0 33.792-13.312 33.792-29.184v-78.848h97.28c15.872 0 29.184-15.36 29.184-31.232s-13.312-31.232-29.184-31.232h-97.28v-60.416h97.28zM780.8 596.48c0-15.872-13.312-31.232-29.184-31.232H632.32c-15.872 0-29.184 15.36-29.184 31.232s12.8 31.232 29.184 31.232h119.296c16.896 0 29.184-15.36 29.184-31.232z m29.184-158.72H632.32c-15.872 0-29.184 15.36-29.184 31.232s12.8 31.232 29.184 31.232h177.664c16.384 0 29.184-15.36 29.184-31.232s-13.312-31.232-29.184-31.232z"  /><path d="M863.232 116.224h-35.84c-13.312 0-25.088 9.216-28.16 22.528-5.12 19.968-22.528 34.304-43.008 34.304s-38.4-14.336-43.008-34.304c-2.56-13.312-14.848-22.528-28.16-22.528H593.92c-13.312 0-25.088 9.216-28.16 22.528-5.12 19.968-22.528 34.304-43.008 34.304s-38.4-14.336-43.008-34.304c-2.56-13.312-14.848-22.528-28.16-22.528H351.232c-13.312 0-25.088 9.728-28.16 22.528-5.12 19.968-22.528 34.304-43.008 34.304s-38.4-14.336-43.008-34.304c-2.56-13.312-14.848-22.528-28.16-22.528h-47.104c-52.224 0-95.232 43.52-95.232 96.256v599.04c0 52.736 43.008 96.256 95.232 96.256h701.952c52.224 0 95.232-43.52 95.232-96.256V212.48c-0.512-52.736-43.52-96.256-95.744-96.256zM898.56 806.4c0 20.992-16.384 37.888-37.376 37.888l-695.808 1.024c-20.48 0-37.376-16.896-37.376-37.888V216.576c0-10.24 3.584-19.456 10.752-26.624s16.384-10.752 26.624-10.752h24.064c16.384 35.328 52.224 57.856 91.136 57.856s74.752-22.528 91.136-57.856h58.88c16.384 35.328 52.224 57.856 91.136 57.856s74.752-22.528 91.136-57.856h50.688c16.384 35.328 52.224 57.856 91.136 57.856s74.752-22.528 91.136-57.856h12.8c10.24 0 19.456 4.096 26.624 11.264 7.168 7.168 10.752 16.384 10.752 26.624l2.56 589.312z"  /></svg>