<?xml version="1.0" standalone="no"?><!DOCTYPE svg PUBLIC "-//W3C//DTD SVG 1.1//EN" "http://www.w3.org/Graphics/SVG/1.1/DTD/svg11.dtd"><svg class="icon" width="16px" height="11.69px" viewBox="0 0 1402 1024" version="1.1" xmlns="http://www.w3.org/2000/svg"><path d="M56.813048 395.567801c-11.005316 15.859116-20.611794 30.79129-28.499218 44.274066C3.235866 482.632828 0 502.536776 0 515.143172V799.225267a89.576194 89.576194 0 0 0 89.525634 89.491927h49.448082c16.533254 77.812472 86.59313 135.282806 167.001037 135.282806s150.450929-57.520894 166.96733-135.282806h22.415115a88.750374 88.750374 0 0 0 54.116493-18.302869 89.003176 89.003176 0 0 0 54.082786 18.302869h238.931648c16.533254 77.812472 86.54257 135.282806 167.001037 135.282806s150.434076-57.470334 166.96733-135.282806h103.598282a89.576194 89.576194 0 0 0 89.491927-89.475073V95.761418A89.576194 89.576194 0 0 0 1280.054774 6.269491h-676.498297a89.576194 89.576194 0 0 0-89.491927 89.491927v101.929788a88.952616 88.952616 0 0 0-18.757912-1.988709H265.324182c-14.898468 0-35.999012 5.511085-79.21131 46.313336a850.982274 850.982274 0 0 0-61.852236 66.116164l-0.235948 0.286509-16.381573 19.314077h0.421336c-0.707846 0.859527-1.381985 1.685347-2.08983 2.561727-17.527609 21.656709-34.4822 44.274066-49.127866 65.307198z m952.642407 557.681331a99.941079 99.941079 0 1 1 99.890518-99.941079 100.059053 100.059053 0 0 1-99.890518 99.941079zM584.865979 285.194424V95.761418a18.757912 18.757912 0 0 1 18.690498-18.757912h676.498297a18.774766 18.774766 0 0 1 18.757912 18.757912v703.497556a18.774766 18.774766 0 0 1-18.757912 18.757912H1176.372225a170.22005 170.22005 0 0 0-161.877582-135.232245h-10.348031a170.388584 170.388584 0 0 0-161.692194 135.232245H603.556477a18.774766 18.774766 0 0 1-18.757912-18.757912z m-278.924933 668.071561a99.941079 99.941079 0 1 1 99.941078-99.941078 100.09276 100.09276 0 0 1-99.941078 99.941078zM70.582333 799.225267V591.118616h262.239998a89.559341 89.559341 0 0 0 89.491927-89.475073v-108.182426a89.576194 89.576194 0 0 0-89.491927-89.491927h-109.058806c1.853882-1.803321 3.606643-3.572936 5.409964-5.325697 24.083609-23.476884 35.712503-30.336246 39.369706-32.156421h226.679175a18.774766 18.774766 0 0 1 18.774766 18.774766v513.72748a18.774766 18.774766 0 0 1-18.774766 18.757913h-22.415115c-15.437779-72.621603-77.89674-128.339176-152.473346-134.659228-0.573018 0-1.095476 0-1.685347-0.10112h-0.202241v0.353922-0.286509h-0.185388v0.252803l-0.185389-0.252803v0.185389-0.185389l-0.235948 0.151682v-0.151682h-0.202242v0.101121l-1.179743-0.185388H310.895966v0.101121l-0.185388-0.101121v0.151681l-0.185388-0.151681-0.235949 0.185388-0.185388-0.185388v0.185388l-0.185388-0.151681v0.101121-0.101121l-0.235949 0.101121h-6.842509a0.87638 0.87638 0 0 0-0.370776 0h-1.702201a0.185388 0.185388 0 0 1-0.151681 0 0.168535 0.168535 0 0 1-0.134828 0h-2.224658a6.842509 6.842509 0 0 1-0.994354 0h-1.533666a10.348031 10.348031 0 0 0-1.179743 0.185388 0.505604 0.505604 0 0 1-0.235949 0h-0.943794v-0.337069c-75.301305 5.662766-138.518672 61.666848-154.091279 134.827762H89.525634a18.774766 18.774766 0 0 1-18.774766-18.757913z m0.134828-278.857519v-4.803239c0.235949-1.685347 2.662848-13.971527 22.988134-47.189717l4.752678-7.651475-9.791866-6.235784 9.977254 5.898714-4.466169-2.983064 4.786385 2.561728c10.348031-16.297306 23.224082-34.718149 37.195609-53.391794a1.938149 1.938149 0 0 1 0.286509-0.38763q12.067085-16.095064 24.62292-31.600257h171.905397a18.774766 18.774766 0 0 1 18.774766 18.757913v108.249839a18.774766 18.774766 0 0 1-18.774766 18.774766z m0 0" /></svg>