<?xml version="1.0" standalone="no"?><!DOCTYPE svg PUBLIC "-//W3C//DTD SVG 1.1//EN" "http://www.w3.org/Graphics/SVG/1.1/DTD/svg11.dtd"><svg t="1564645979458" class="icon" viewBox="0 0 1024 1024" version="1.1" xmlns="http://www.w3.org/2000/svg" p-id="1665" xmlns:xlink="http://www.w3.org/1999/xlink" width="200" height="200"><defs><style type="text/css"></style></defs><path d="M986.496698 940.218182l-135.819636-138.100364a46.266182 46.266182 0 0 0-22.341818-11.822545c67.118545-103.796364 45.149091-242.501818-50.734546-319.627637a233.053091 233.053091 0 0 0-317.672727 23.272728 242.641455 242.641455 0 0 0-5.12 323.723636 233.099636 233.099636 0 0 0 316.788364 33.652364c2.001455 7.586909 5.818182 14.615273 11.170909 20.340363l135.819636 138.053818c12.101818 12.334545 29.789091 17.128727 46.359273 12.613819a48.407273 48.407273 0 0 0 33.978182-34.490182 49.338182 49.338182 0 0 0-12.427637-47.150546v-0.465454z m-424.680727-104.029091c-72.424727-30.626909-118.178909-104.075636-114.408727-183.714909 3.723636-79.592727 56.180364-148.293818 131.165091-171.752727a184.32 184.32 0 0 1 203.403636 67.211636 191.674182 191.674182 0 0 1 6.842182 217.320727 184.413091 184.413091 0 0 1-227.002182 70.935273zM690.421062 139.636364H193.59488C176.233425 139.636364 162.735244 149.876364 162.735244 162.909091s14.010182 23.272727 30.859636 23.272727h496.826182c17.314909 0 30.859636-10.24 30.859636-23.272727s-13.544727-23.272727-30.859636-23.272727zM721.280698 302.545455c0-13.032727-14.010182-23.272727-30.813091-23.272728H193.548335C176.279971 279.272727 162.735244 289.512727 162.735244 302.545455s14.010182 23.272727 30.813091 23.272727h496.453818c17.268364 0 31.278545-10.24 31.278545-23.272727zM195.922153 418.909091C177.629789 418.909091 162.735244 429.149091 162.735244 442.181818s14.941091 23.272727 33.186909 23.272727h166.353454C380.567971 465.454545 395.462516 455.214545 395.462516 442.181818S380.521425 418.909091 362.275607 418.909091H195.922153z" p-id="1666" fill="#1296db"></path><path d="M485.853789 977.454545H178.421062a109.521455 109.521455 0 0 1-108.683637-109.847272V156.392727A109.521455 109.521455 0 0 1 178.421062 46.545455h527.173818a109.521455 109.521455 0 0 1 108.683636 109.847272v222.487273a23.272727 23.272727 0 0 0 46.638546 0V156.392727A156.113455 156.113455 0 0 0 705.59488 0H178.421062A156.113455 156.113455 0 0 0 23.09888 156.392727v711.214546A156.113455 156.113455 0 0 0 178.421062 1024h307.432727a23.272727 23.272727 0 1 0 0-46.545455z" p-id="1667" fill="#1296db"></path></svg>