<?xml version="1.0" standalone="no"?><!DOCTYPE svg PUBLIC "-//W3C//DTD SVG 1.1//EN" "http://www.w3.org/Graphics/SVG/1.1/DTD/svg11.dtd"><svg t="1569759234243" class="icon" viewBox="0 0 1024 1024" version="1.1" xmlns="http://www.w3.org/2000/svg" p-id="596" xmlns:xlink="http://www.w3.org/1999/xlink" width="200" height="200"><defs><style type="text/css"></style></defs><path d="M873.566826 111.615077 150.433174 111.615077c-47.570435 0-86.272899 38.70144-86.272899 86.272899l0 401.474744c0 47.571459 38.702464 86.273922 86.272899 86.273922l297.366641 0 0 130.814348-191.869912 0 0 63.956637 511.653099 0 0-63.956637-191.869912 0L575.713091 685.635619l297.853735 0c47.570435 0 86.272899-38.70144 86.272899-86.273922L959.839725 197.887976C959.838701 150.316517 921.137261 111.615077 873.566826 111.615077zM695.665043 587.121931l-53.28867 0 0-58.123792 53.28867 0L695.665043 587.121931zM601.445148 587.121931l-53.28867 0 0-58.123792 53.28867 0L601.445148 587.121931zM507.22423 587.121931l-53.28867 0 0-58.123792 53.28867 0L507.22423 587.121931zM352.812441 460.673008l0 126.448924-73.126484 0 25.699312-190.326766 70.617337 0 8.625448 63.877843L352.812441 460.673008zM895.882064 599.361697c0 12.305257-10.011005 22.317285-22.316262 22.317285L808.426223 621.678982l0-34.55705-70.068845 0 0-94.106308-133.760446-72.426543 0 44.721551-82.59309-44.721551 0 47.651276-88.005356-47.651276 0 40.083927-23.762193 0-12.051477-89.25686L283.20306 371.416148l-29.125341 215.70476-48.055482 0 0 34.55705-55.589063 0c-12.305257 0-22.316262-10.011005-22.316262-22.317285L128.116913 197.887976c0-12.305257 10.011005-22.316262 22.316262-22.316262l723.133651 0c12.096503 0 22.316262 10.219759 22.316262 22.316262L895.883087 599.361697z" p-id="597"></path><path d="M602.096994 251.825422c-16.996093 0-35.069727-2.098801-54.205553-4.321422-20.262486-2.353604-41.21468-4.787026-62.140269-4.787026-29.268604 0-53.766554 5.007037-74.893734 15.306614-26.130124 12.738116-47.460941 33.375132-65.213257 63.09092l-19.102057 31.975249 34.410718-14.255679c37.94931-15.722076 76.821643-17.73799 106.448404-17.73799 15.526625 0 30.893614 0.644683 45.754067 1.267876 14.323217 0.600681 27.852348 1.167592 41.043788 1.167592 52.04126 0 103.233176-8.894577 125.242446-73.420173l12.738116-37.346583-31.739888 23.443945C646.016273 246.862387 627.476011 251.825422 602.096994 251.825422zM554.199101 298.863738c-12.674671 0-25.953092-0.556679-40.011272-1.146103-15.115256-0.63445-30.743188-1.289366-46.787606-1.289366-22.313192 0-49.565882 1.090844-78.287017 7.690146 30.546713-31.718399 65.367777-36.734646 96.637967-36.734646 19.498076 0 39.729863 2.349511 59.294454 4.622274 18.990516 2.205225 38.626739 4.486174 57.051367 4.486174 13.926174 0 26.284643-1.316995 37.387515-4.040013C620.787682 293.862841 592.56899 298.863738 554.199101 298.863738z" p-id="598"></path></svg>