<?xml version="1.0" standalone="no"?><!DOCTYPE svg PUBLIC "-//W3C//DTD SVG 1.1//EN" "http://www.w3.org/Graphics/SVG/1.1/DTD/svg11.dtd"><svg t="1566205022398" class="icon" viewBox="0 0 1024 1024" version="1.1" xmlns="http://www.w3.org/2000/svg" p-id="12706" xmlns:xlink="http://www.w3.org/1999/xlink" width="200" height="200"><defs><style type="text/css"></style></defs><path d="M512.017407 882.934565c-50.064329 0-98.642897-9.810532-144.386128-29.159223-44.170433-18.682095-83.834431-45.423756-117.891241-79.480566-34.055786-34.05681-60.796423-73.71876-79.478518-117.886121-19.346643-45.738111-29.156151-94.309511-29.156151-144.363601 0-50.065353 9.809508-98.642897 29.156151-144.385104 18.682095-44.171457 45.422732-83.836479 79.479542-117.892265 34.055786-34.055786 73.720808-60.797447 117.892265-79.478518 45.742207-19.346643 94.320775-29.156151 144.386128-29.156151 50.063305 0 98.637777 9.809508 144.375888 29.156151 44.167361 18.682095 83.828287 45.422732 117.881001 79.479542s60.789255 73.720808 79.468278 117.892265c19.344596 45.741183 29.152056 94.319751 29.152056 144.385104 0 50.055114-9.80746 98.62549-29.152056 144.362577-18.680047 44.167361-45.416589 83.830335-79.468278 117.886121-34.053738 34.05681-73.714664 60.79847-117.881001 79.48159C610.654161 873.124033 562.078665 882.934565 512.017407 882.934565zM512.017407 184.766896c-180.462181 0-327.278158 146.815978-327.278158 327.278158 0 180.449893 146.815978 327.255631 327.278158 327.255631 180.442725 0 327.243344-146.805738 327.243344-327.255631C839.260751 331.582874 692.460133 184.766896 512.017407 184.766896zM349.116089 349.14476c25.680841 0 46.542941 20.817046 46.542941 46.542941 0 25.680841-20.863124 46.542941-46.542941 46.542941-25.725896 0-46.542941-20.863124-46.542941-46.542941C302.573148 369.961806 323.390194 349.14476 349.116089 349.14476zM674.906438 349.14476c25.703368 0 46.542941 20.817046 46.542941 46.542941 0 25.680841-20.840597 46.542941-46.542941 46.542941-25.704392 0-46.521438-20.863124-46.521438-46.542941C628.385 369.961806 649.202046 349.14476 674.906438 349.14476zM511.993856 768.031231c-95.443031 0-178.753196-64.608614-202.593987-157.114937-3.208057-12.445173 4.282188-25.135072 16.727361-28.34313 12.447221-3.206009 25.136096 4.282188 28.34313 16.727361 18.540789 71.943218 83.317333 122.188788 157.523496 122.188788 74.206163 0 138.997042-50.248642 157.558311-122.194932 3.211129-12.443125 15.89898-19.931323 28.348249-16.720194 12.444149 3.211129 19.931323 15.902052 16.720194 28.348249C690.755244 703.425688 607.430744 768.031231 511.993856 768.031231z" p-id="12707"></path></svg>