<?xml version="1.0" standalone="no"?><!DOCTYPE svg PUBLIC "-//W3C//DTD SVG 1.1//EN" "http://www.w3.org/Graphics/SVG/1.1/DTD/svg11.dtd"><svg t="1566205288191" class="icon" viewBox="0 0 1024 1024" version="1.1" xmlns="http://www.w3.org/2000/svg" p-id="2492" xmlns:xlink="http://www.w3.org/1999/xlink" width="200" height="200"><defs><style type="text/css"></style></defs><path d="M587.776 733.216a25.024 25.024 0 0 1-25.056-25.024v-275.2a25.024 25.024 0 0 1 50.112 0v275.2c0 13.856-11.2 25.024-25.056 25.024m-150.304 0a25.024 25.024 0 0 1-25.056-25.024v-275.2a25.024 25.024 0 0 1 50.112 0v275.2a25.024 25.024 0 0 1-25.056 25.024M838.304 307.968h-125.248V257.92a74.912 74.912 0 0 0-74.592-75.072h-251.072A75.2 75.2 0 0 0 312.256 257.92v50.048H186.944a25.024 25.024 0 1 0 0 50.048h651.328a25.024 25.024 0 1 0 0.032-50.048M362.336 257.92c0-13.792 11.264-25.024 25.056-25.024h251.072c13.728 0 24.48 10.976 24.48 25.024v50.048h-300.608V257.92m325.76 625.408H337.312a75.168 75.168 0 0 1-75.136-75.04V432.672a25.056 25.056 0 0 1 50.112 0v375.616c0 13.792 11.264 25.024 25.056 25.024h350.784c13.824 0 25.056-11.2 25.056-25.024V433.696a25.056 25.056 0 0 1 50.112 0v374.592a75.264 75.264 0 0 1-75.2 75.04m0 0z" p-id="2493"></path></svg>