<?xml version="1.0" standalone="no"?><!DOCTYPE svg PUBLIC "-//W3C//DTD SVG 1.1//EN" "http://www.w3.org/Graphics/SVG/1.1/DTD/svg11.dtd"><svg t="1571279826060" class="icon" viewBox="0 0 1061 1024" version="1.1" xmlns="http://www.w3.org/2000/svg" p-id="4369" xmlns:xlink="http://www.w3.org/1999/xlink" width="207.2265625" height="200"><defs><style type="text/css"></style></defs><path d="M195.33333359 162.0000002h666.66666622a133.33333359 133.33333359 0 0 1 133.33333359 133.33333271v583.3333336a83.33333349 83.33333349 0 0 1-83.3333335 83.33333349H195.33333359a133.33333359 133.33333359 0 0 1-133.33333359-133.33333359V295.33333291a133.33333359 133.33333359 0 0 1 133.33333359-133.33333271z" fill="#BAE7FF" p-id="4370"></path><path d="M195.33333359 162.0000002h666.66666622a133.33333359 133.33333359 0 0 1 133.33333359 133.33333271v416.66666748l-133.33333359 120.33333281-1.99999952 2.00000039L728.66666709 962H195.33333359a133.33333359 133.33333359 0 0 1-133.33333359-133.33333359V295.33333291a133.33333359 133.33333359 0 0 1 133.33333359-133.33333271z" fill="#1890FF" p-id="4371"></path><path d="M195.33333359 162.0000002h666.66666622a133.33333359 133.33333359 0 0 1 133.33333359 133.33333271v416.66666748h-182.3333335a83.33333349 83.33333349 0 0 0-83.33333349 83.33333261v166.666667H195.33333359a133.33333359 133.33333359 0 0 1-133.33333359-133.33333359V295.33333291a133.33333359 133.33333359 0 0 1 133.33333359-133.33333271z" fill="#69C0FF" p-id="4372"></path><path d="M361.99999971 62a33.33333339 33.33333339 0 0 1 33.33333339 33.33333339v152.33333292a33.33333339 33.33333339 0 0 1-33.33333339 33.3333334 33.33333339 33.33333339 0 0 1-33.3333334-33.3333334V95.3333334a33.33333339 33.33333339 0 0 1 33.3333334-33.3333334zM695.33333369 62a33.33333339 33.33333339 0 0 1 33.3333334 33.33333339v152.33333292a33.33333339 33.33333339 0 0 1-33.3333334 33.3333334 33.33333339 33.33333339 0 0 1-33.3333334-33.3333334V95.3333334a33.33333339 33.33333339 0 0 1 33.3333334-33.3333334z" fill="#BAE7FF" p-id="4373"></path><path d="M345.33333301 495.3333333m-50.0000001 0a50.0000001 50.0000001 0 1 0 100.00000019 0 50.0000001 50.0000001 0 1 0-100.00000019 0Z" fill="#BAE7FF" p-id="4374"></path><path d="M528.6666667 461.9999999h200.00000039a33.33333339 33.33333339 0 0 1 33.33333252 33.3333334 33.33333339 33.33333339 0 0 1-33.33333252 33.3333334h-200.00000039a33.33333339 33.33333339 0 0 1-33.3333334-33.3333334 33.33333339 33.33333339 0 0 1 33.3333334-33.3333334zM528.6666667 628.6666669h200.00000039a33.33333339 33.33333339 0 0 1 33.33333252 33.33333339 33.33333339 33.33333339 0 0 1-33.33333252 33.3333334h-200.00000039a33.33333339 33.33333339 0 0 1-33.3333334-33.3333334 33.33333339 33.33333339 0 0 1 33.3333334-33.33333339z" fill="#BAE7FF" p-id="4375"></path><path d="M345.33333301 662.00000029m-50.0000001 0a50.0000001 50.0000001 0 1 0 100.00000019 0 50.0000001 50.0000001 0 1 0-100.00000019 0Z" fill="#BAE7FF" p-id="4376"></path></svg>