<?xml version="1.0" standalone="no"?><!DOCTYPE svg PUBLIC "-//W3C//DTD SVG 1.1//EN" "http://www.w3.org/Graphics/SVG/1.1/DTD/svg11.dtd"><svg t="1567240025745" class="icon" viewBox="0 0 1024 1024" version="1.1" xmlns="http://www.w3.org/2000/svg" p-id="4355" xmlns:xlink="http://www.w3.org/1999/xlink" width="200" height="200"><defs><style type="text/css"></style></defs><path d="M698.833455 350.813091l-193.815273 193.861818L377.530182 417.186909c-9.076364-9.076364-23.831273-9.076364-32.907636 0-9.076364 9.076364-9.076364 23.831273 0 32.907636l127.488 127.488-36.538182 36.538182c-9.076364 9.076364-9.076364 23.831273 0 32.907636 9.076364 9.076364 23.831273 9.076364 32.907636 0l36.538182-36.538182 37.096727 37.096727c9.076364 9.076364 23.831273 9.076364 32.907636 0 9.076364-9.076364 9.076364-23.831273 0-32.907636l-37.096727-37.096727 193.815273-193.815273c9.076364-9.076364 9.076364-23.831273 0-32.907636C722.664727 341.736727 707.909818 341.736727 698.833455 350.813091zM512 69.818182c-257.070545 0-465.454545 208.384-465.454545 465.454545 0 257.070545 208.384 465.454545 465.454545 465.454545 257.070545 0 465.454545-208.384 465.454545-465.454545C977.454545 278.202182 769.070545 69.818182 512 69.818182zM535.272727 952.645818 535.272727 837.818182c0-12.846545-10.426182-23.272727-23.272727-23.272727-12.846545 0-23.272727 10.426182-23.272727 23.272727l0 114.827636C277.457455 940.869818 105.378909 770.839273 94.394182 558.545455L209.454545 558.545455C222.301091 558.545455 232.727273 548.119273 232.727273 535.272727 232.727273 522.426182 222.301091 512 209.454545 512L94.626909 512C107.426909 301.195636 278.714182 129.722182 488.727273 117.76L488.727273 232.727273c0 12.846545 10.426182 23.272727 23.272727 23.272727 12.846545 0 23.272727-10.426182 23.272727-23.272727L535.272727 117.806545c210.059636 11.962182 381.346909 183.435636 394.146909 394.193455L814.545455 512c-12.846545 0-23.272727 10.426182-23.272727 23.272727 0 12.846545 10.426182 23.272727 23.272727 23.272727l115.060364 0C918.621091 770.839273 746.542545 940.869818 535.272727 952.645818z" p-id="4356"></path></svg>