<?xml version="1.0" standalone="no"?><!DOCTYPE svg PUBLIC "-//W3C//DTD SVG 1.1//EN" "http://www.w3.org/Graphics/SVG/1.1/DTD/svg11.dtd"><svg t="1570004266647" class="icon" viewBox="0 0 1024 1024" version="1.1" xmlns="http://www.w3.org/2000/svg" p-id="1125" xmlns:xlink="http://www.w3.org/1999/xlink" width="200" height="200"><defs><style type="text/css"></style></defs><path d="M516.3 485.6V196.8c0-15-12.3-27.2-27.4-27.2s-27.4 12.2-27.4 27.2v261.6h-210c-15.1 0-27.4 12.2-27.4 27.2s12.3 27.2 27.4 27.2h237.4c15.1 0 27.4-12.2 27.4-27.2z m169.4-165.3l37.9-37.8-37.9-37.8-37.9 37.8 37.9 37.8zM471.1 850.8l-0.3-0.5h-0.6c-196-9.7-349.6-170.2-349.6-365.3 0-201.7 165.2-365.7 368.2-365.7 199.4 0 364.5 161 368.1 358.9v0.6l0.5 0.3c18.5 10.4 35.8 22.8 51.5 37.1l1.6 1.4 0.2-2.1c0.7-10.1 1.1-20.4 1.1-30.5 0-56.7-11.2-111.8-33.3-163.6-21.3-50-51.8-95-90.6-133.6-38.6-38.4-84.2-69-134.5-90-52.2-21.9-107.6-33-164.7-33-57.1 0-112.5 11.1-164.7 33-50.2 21.1-95.9 51.6-134.5 90-38.8 38.6-69.3 83.5-90.7 133.6C77.1 373.2 65.9 428.3 65.9 485c0 56.7 11.2 111.7 33.2 163.5 21.3 50 51.8 95 90.6 133.6 38.6 38.4 84.2 69 134.5 90 52.2 21.9 107.6 33 164.7 33 5.7 0 11.5-0.1 17.1-0.3l2.1-0.1-1.4-1.6c-13.7-16-25.7-33.5-35.6-52.3z m417.7-296.7c-45.1-44.8-105.1-69.5-168.9-69.5-63.8 0-123.8 24.7-168.9 69.5-45.1 44.8-70 104.4-70 167.8 0 63.4 24.8 122.9 70 167.8 45.1 44.8 105.1 69.5 168.9 69.5 63.8 0 123.8-24.7 168.9-69.5 45.1-44.8 70-104.4 70-167.8-0.1-63.4-24.9-123-70-167.8zM719.9 904c-101.1 0-183.3-81.7-183.3-182.1 0-100.4 82.2-182.1 183.3-182.1 101.1 0 183.3 81.7 183.3 182.1C903.2 822.3 821 904 719.9 904zM324 283.9l-38.7-38.5-38.8 38.5 38.8 38.5 38.7-38.5z m-43 417.9l37.9-37.8-37.9-37.8-37.9 37.8 37.9 37.8zM749.3 602h-52.8v91.5h-96.9v52.4h96.9v103.9h52.8V745.9h93v-52.4h-93V602z m0 0" p-id="1126"></path></svg>