<?xml version="1.0" standalone="no"?><!DOCTYPE svg PUBLIC "-//W3C//DTD SVG 1.1//EN" "http://www.w3.org/Graphics/SVG/1.1/DTD/svg11.dtd"><svg t="1565151529142" class="icon" viewBox="0 0 1024 1024" version="1.1" xmlns="http://www.w3.org/2000/svg" p-id="2710" xmlns:xlink="http://www.w3.org/1999/xlink" width="200" height="200"><defs><style type="text/css"></style></defs><path d="M896 808.96H128a40.96 40.96 0 0 1-40.96-40.96V256a40.96 40.96 0 0 1 40.96-40.96h768a40.96 40.96 0 0 1 40.96 40.96v512a40.96 40.96 0 0 1-40.96 40.96zM168.96 727.04h686.08V296.96H168.96v430.08z" p-id="2711" fill="#5a5e66"></path><path d="M896 808.96H128a40.97024 40.97024 0 0 1-27.95008-70.90176l271.36-253.27104a40.96 40.96 0 0 1 55.89504 59.88864L231.91552 727.04h560.16896l-195.38432-182.35392a40.97024 40.97024 0 0 1 55.90016-59.88864l271.34976 253.2608A40.97024 40.97024 0 0 1 896 808.96z" p-id="2712" fill="#5a5e66"></path><path d="M512 614.31296c-38.77376 0-75.28448-14.15168-102.8096-39.83872L174.91456 355.8144c-44.60032-41.63072-39.78752-76.95872-32.9472-94.3104S169.38496 215.04 230.4 215.04h563.2c61.01504 0 81.59744 29.11232 88.43264 46.464 6.84032 17.35168 11.65312 52.67968-32.9472 94.3104l-234.28096 218.65984c-27.52 25.69216-64.03584 39.83872-102.80448 39.83872zM231.91552 296.96l233.17504 217.6256c12.30336 11.48416 28.96384 17.80736 46.91456 17.80736s34.6112-6.3232 46.90944-17.80736L792.08448 296.96H231.91552z" p-id="2713" fill="#5a5e66"></path></svg>