<?xml version="1.0" standalone="no"?><!DOCTYPE svg PUBLIC "-//W3C//DTD SVG 1.1//EN" "http://www.w3.org/Graphics/SVG/1.1/DTD/svg11.dtd"><svg t="1571287107902" class="icon" viewBox="0 0 1024 1024" version="1.1" xmlns="http://www.w3.org/2000/svg" p-id="12140" xmlns:xlink="http://www.w3.org/1999/xlink" width="200" height="200"><defs><style type="text/css"></style></defs><path d="M512 512m-451.764706 0a451.764706 451.764706 0 1 0 903.529412 0 451.764706 451.764706 0 1 0-903.529412 0Z" fill="#FF447E" p-id="12141"></path><path d="M722.823529 301.176471a204.378353 204.378353 0 0 0-145.468235-60.235295c-54.934588 0-106.616471 21.383529-145.468235 60.235295s-60.235294 90.533647-60.235294 145.468235c0 44.754824 14.215529 87.341176 40.538353 122.639059l-35.418353 35.358117-84.449883-84.449882a30.117647 30.117647 0 1 0-42.586353 42.586353l84.510118 84.449882-32.768 32.768a30.117647 30.117647 0 0 0 42.526118 42.526118l32.768-32.768 84.449882 84.510118a30.117647 30.117647 0 1 0 42.586353-42.586353l-84.449882-84.449883 35.358117-35.358117a204.197647 204.197647 0 0 0 122.639059 40.478117c54.934588 0 106.616471-21.383529 145.468235-60.235294s60.235294-90.533647 60.235295-145.468235c0-54.934588-21.383529-106.616471-60.235295-145.468235z m-42.586353 248.350117a144.564706 144.564706 0 0 1-102.881882 42.646588 144.564706 144.564706 0 0 1-102.881882-42.646588 144.564706 144.564706 0 0 1-42.646588-102.881882 144.564706 144.564706 0 0 1 42.646588-102.881882 144.564706 144.564706 0 0 1 102.881882-42.646589 144.564706 144.564706 0 0 1 102.881882 42.646589 144.564706 144.564706 0 0 1 42.646589 102.881882 144.564706 144.564706 0 0 1-42.646589 102.881882z" fill="#FFFFFF" p-id="12142"></path></svg>