<?xml version="1.0" standalone="no"?><!DOCTYPE svg PUBLIC "-//W3C//DTD SVG 1.1//EN" "http://www.w3.org/Graphics/SVG/1.1/DTD/svg11.dtd"><svg t="1563160877371" class="icon" viewBox="0 0 1024 1024" version="1.1" xmlns="http://www.w3.org/2000/svg" p-id="1027" xmlns:xlink="http://www.w3.org/1999/xlink" width="200" height="200"><defs><style type="text/css"></style></defs><path d="M373.399315 114.979708l277.201369 0 0 51.16531-277.201369 0 0-51.16531Z" p-id="1028" fill="#e6e6e6"></path><path d="M927.839917 114.979708 719.907167 114.979708l0 51.16531 207.933773 0c10.003841 0 18.141172 8.138354 18.141172 18.141172l0 740.716098c0 10.002818-8.138354 18.141172-18.141172 18.141172L96.15906 943.143461c-10.002818 0-18.141172-8.138354-18.141172-18.141172L78.017888 184.28619c0-10.002818 8.138354-18.141172 18.141172-18.141172l207.933773 0 0-51.16531L96.15906 114.979708c-38.276768 0-69.306482 31.029714-69.306482 69.306482l0 740.716098c0 38.276768 31.029714 69.306482 69.306482 69.306482l831.680856 0c38.277792 0 69.306482-31.029714 69.306482-69.306482L997.146399 184.28619C997.147422 146.009422 966.117708 114.979708 927.839917 114.979708z" p-id="1029" fill="#e6e6e6"></path><path d="M304.092833 277.226952 373.399315 277.226952 373.399315 166.145018 373.399315 114.979708 373.399315 0 304.092833 0 304.092833 114.979708 304.092833 166.145018Z" p-id="1030" fill="#e6e6e6"></path><path d="M650.600685 277.226952 719.907167 277.226952 719.907167 166.145018 719.907167 114.979708 719.907167 0 650.600685 0 650.600685 114.979708 650.600685 166.145018Z" p-id="1031" fill="#e6e6e6"></path><path d="M786.352485 472.068546 737.345328 423.061388 419.951561 740.455155 238.471276 558.974871 189.464119 607.982028 419.951561 838.46947 427.991678 830.429353 427.991678 830.429353Z" p-id="1032" fill="#e6e6e6"></path></svg>